<?xml version="1.0" encoding="utf-8"?>
<!-- Svg Vector Icons : http://www.onlinewebfonts.com/icon -->
<!DOCTYPE svg PUBLIC "-//W3C//DTD SVG 1.1//EN" "http://www.w3.org/Graphics/SVG/1.1/DTD/svg11.dtd">
<svg version="1.1" xmlns="http://www.w3.org/2000/svg" xmlns:xlink="http://www.w3.org/1999/xlink" x="0px" y="0px" viewBox="0 0 1000 1000" enable-background="new 0 0 1000 1000" xml:space="preserve">
<metadata> Svg Vector Icons : http://www.onlinewebfonts.com/icon </metadata>
<g><g><g id="_x39__4_"><g><path d="M867.5,10h-735C64.8,10,10,64.8,10,132.5v735C10,935.2,64.8,990,132.5,990h735c67.7,0,122.5-54.8,122.5-122.5v-735C990,64.8,935.2,10,867.5,10z M928.8,867.5c0,33.8-27.4,61.3-61.3,61.3h-735c-33.8,0-61.3-27.4-61.3-61.3v-735c0-33.8,27.4-61.3,61.3-61.3h735c33.8,0,61.3,27.4,61.3,61.3V867.5z M526.9,269.2c-7.3-7.3-17.4-9.6-26.9-7.9c-9.5-1.7-19.6,0.6-26.9,8L299.8,442.5c-12,11.9-12,31.4,0,43.3c12,12,31.4,12,43.3,0l126.2-126.2v324.2c0,16.9,13.7,30.6,30.6,30.6c16.9,0,30.6-13.7,30.6-30.6V359.6l126.2,126.2c12,12,31.4,12,43.3,0c12-12,12-31.4,0-43.3L526.9,269.2z"/></g></g></g><g></g><g></g><g></g><g></g><g></g><g></g><g></g><g></g><g></g><g></g><g></g><g></g><g></g><g></g><g></g></g>
</svg>